HIERARCHY
ROOT Hips
{
	OFFSET 0.000000 0.000000 0.000000 
	CHANNELS 6 Xposition Yposition Zposition Zrotation Yrotation Xrotation
	JOINT LeftUpLeg
	{
		OFFSET 1.363060 -1.794630 0.839290 
		CHANNELS 3 Zrotation Yrotation Xrotation
		JOINT LeftLeg
		{
			OFFSET 2.448110 -6.726130 0.000000 
			CHANNELS 3 Zrotation Yrotation Xrotation
			JOINT LeftFoot
			{
				OFFSET 2.562200 -7.039590 0.000000 
				CHANNELS 3 Zrotation Yrotation Xrotation
				JOINT LeftToeBase
				{
					OFFSET 0.157640 -0.433110 2.322550 
					CHANNELS 3 Zrotation Yrotation Xrotation
					End Site
					{
						OFFSET 0.000000 0.000000 0.000000 
					}
				}
			}
		}
	}
	JOINT RightUpLeg
	{
		OFFSET -1.305520 -1.794630 0.839290 
		CHANNELS 3 Zrotation Yrotation Xrotation
		JOINT RightLeg
		{
			OFFSET -2.542530 -6.985550 0.000000 
			CHANNELS 3 Zrotation Yrotation Xrotation
			JOINT RightFoot
			{
				OFFSET -2.568260 -7.056230 0.000000 
				CHANNELS 3 Zrotation Yrotation Xrotation
				JOINT RightToeBase
				{
					OFFSET -0.164730 -0.452590 2.363150 
					CHANNELS 3 Zrotation Yrotation Xrotation
					End Site
					{
						OFFSET 0.000000 0.000000 0.000000 
					}
				}
			}
		}
	}
	JOINT Spine
	{
		OFFSET 0.028270 2.035590 -0.193380 
		CHANNELS 3 Zrotation Yrotation Xrotation
		JOINT Spine1
		{
			OFFSET 0.056720 2.048850 -0.042750 
			CHANNELS 3 Zrotation Yrotation Xrotation
			JOINT Neck1
			{
				OFFSET -0.054170 1.746240 0.172020 
				CHANNELS 3 Zrotation Yrotation Xrotation
				JOINT Head
				{
					OFFSET 0.104070 1.761360 -0.123970 
					CHANNELS 3 Zrotation Yrotation Xrotation
					End Site
					{
						OFFSET 0.000000 0.000000 0.000000 
					}
				}
			}
			JOINT LeftArm
			{
				OFFSET 3.362410 1.200890 -0.311210 
				CHANNELS 3 Zrotation Yrotation Xrotation
				JOINT LeftForeArm
				{
					OFFSET 4.983000 -0.000000 -0.000000 
					CHANNELS 3 Zrotation Yrotation Xrotation
					JOINT LeftHand
					{
						OFFSET 3.483560 -0.000000 -0.000000 
						CHANNELS 3 Zrotation Yrotation Xrotation
						JOINT LeftHandIndex1
						{
							OFFSET 0.715260 -0.000000 -0.000000 
							CHANNELS 3 Zrotation Yrotation Xrotation
							End Site
							{
								OFFSET 0.000000 0.000000 0.000000 
							}
						}
					}
				}
			}
			JOINT RightArm
			{
				OFFSET -3.136600 1.374050 -0.404650 
				CHANNELS 3 Zrotation Yrotation Xrotation
				JOINT RightForeArm
				{
					OFFSET -5.241900 -0.000000 -0.000000 
					CHANNELS 3 Zrotation Yrotation Xrotation
					JOINT RightHand
					{
						OFFSET -3.444170 -0.000000 -0.000000 
						CHANNELS 3 Zrotation Yrotation Xrotation
						JOINT RightHandIndex1
						{
							OFFSET -0.622530 -0.000000 -0.000000 
							CHANNELS 3 Zrotation Yrotation Xrotation
							End Site
							{
								OFFSET 0.000000 0.000000 0.000000 
							}
						}
					}
				}
			}
		}
	}
}
MOTION
Frames: 13
Frame Time: 0.041667
4.764379 17.383811 1.245059 -124.487767 87.150486 -116.807760 -18.868533 -24.173284 -10.164288 -0.312775 10.806580 28.896651 -0.495902 9.244504 -16.440837 2.172800 -9.217100 -26.476800 32.656789 24.498279 2.774621 2.602076 -6.709205 19.198803 2.761331 -31.924641 -34.758271 -0.721900 -5.429100 15.136700 1.180434 1.569214 -3.855270 -0.553645 0.232774 -1.159265 6.080263 -1.937601 16.769520 0.702600 0.142300 14.635300 -55.896145 19.750646 54.843842 84.267111 -57.738272 -57.239947 0.876716 -0.216099 -51.370046 -7.125000 0.000000 0.000000 41.865296 -19.616617 60.834788 -72.521655 59.069949 -45.830822 -0.753842 -0.814569 -36.792052 7.125000 0.000000 0.000000 
4.783777 17.386186 1.231797 -122.370802 87.123832 -114.600625 -18.872087 -24.028186 -10.216393 -0.316829 10.794788 28.865369 -0.480735 9.147076 -16.428707 2.155600 -9.182800 -26.368900 32.620009 24.561614 2.768049 2.607890 -6.698117 19.161987 2.755815 -31.926451 -34.803096 -0.725200 -5.441200 15.171500 1.207711 1.467273 -3.848074 -0.489636 0.183853 -1.110251 6.082748 -1.789085 16.662112 0.706500 0.191600 14.605300 -57.126752 20.416221 56.166522 75.028654 -56.794459 -48.904728 0.888979 -0.435552 -46.149338 -7.125000 0.000000 0.000000 42.580429 -19.720891 60.632728 -65.023026 57.735310 -39.543232 -0.794877 -0.744548 -32.564893 7.125000 0.000000 0.000000 
4.805353 17.389056 1.219128 -119.459156 87.139862 -111.600051 -18.919218 -23.815610 -10.287223 -0.315808 10.792939 28.861944 -0.457739 9.015318 -16.437868 2.150800 -9.173400 -26.339100 32.524731 24.660726 2.789856 2.613375 -6.673514 19.099874 2.696414 -31.805154 -34.935656 -0.824700 -5.793900 16.187700 1.223028 1.376240 -3.841791 -0.447406 0.143890 -1.093084 6.082775 -1.598146 16.566458 0.704400 0.265700 14.582700 -58.538195 21.228783 55.748729 66.241000 -55.380394 -41.090424 0.877193 -0.621307 -42.536923 -7.125000 0.000000 0.000000 43.396494 -19.918653 59.670330 -58.082936 56.011619 -33.817086 -0.822101 -0.668744 -28.474395 7.125000 0.000000 0.000000 
4.825939 17.387473 1.205272 -115.619216 87.171513 -107.688375 -19.015571 -23.660811 -10.309345 -0.320016 10.789387 28.849804 -0.442215 8.953128 -16.494624 2.128700 -9.129100 -26.199900 32.453613 24.774498 2.827384 2.618180 -6.664487 19.080370 2.799260 -32.034706 -34.787115 -0.708500 -5.379800 14.995000 1.220289 1.317607 -3.834535 -0.467128 0.124222 -1.099111 6.058711 -1.425674 16.487608 0.670000 0.342000 14.581200 -60.057848 22.118156 54.413836 58.063274 -53.463840 -34.028537 0.811601 -0.805271 -39.183559 -7.125000 0.000000 0.000000 44.257149 -20.134759 58.164040 -51.714356 53.940828 -28.675710 -0.814826 -0.588831 -25.111888 7.125000 0.000000 0.000000 
4.846624 17.385394 1.189536 -109.889127 87.178927 -101.903552 -19.119353 -23.529398 -10.300716 -0.328720 10.786104 28.828516 -0.434073 8.944559 -16.575323 2.099600 -9.070500 -26.016200 32.400635 24.913763 2.883080 2.618046 -6.664061 19.093978 2.922978 -32.307037 -34.600905 -0.565400 -4.815800 13.384000 1.208149 1.311204 -3.832816 -0.528719 0.138956 -1.147055 6.029102 -1.312540 16.405889 0.629600 0.391900 14.549900 -61.735852 22.980424 51.784784 51.151782 -51.240852 -28.289689 0.713982 -0.973703 -36.925076 -7.125000 0.000000 0.000000 44.995219 -20.294757 56.517783 -45.924997 51.567478 -24.126217 -0.760547 -0.496073 -23.143373 7.125000 0.000000 0.000000 
4.869288 17.385493 1.172612 -102.897604 87.215337 -94.861574 -19.270635 -23.367073 -10.308605 -0.339220 10.793123 28.815112 -0.426586 8.944056 -16.659158 2.078400 -9.027500 -25.881200 32.285900 25.062916 2.955040 2.614979 -6.653915 19.101822 3.033438 -32.534932 -34.416112 -0.475600 -4.422800 12.269400 1.195647 1.339662 -3.832572 -0.561203 0.180561 -1.209502 5.992796 -1.199836 16.320595 0.593600 0.435200 14.484400 -63.563442 23.812605 48.226038 45.325895 -48.831359 -23.657807 0.589244 -1.146399 -34.714142 -7.125000 0.000000 0.000000 45.722189 -20.480699 54.523573 -40.912224 49.056563 -20.314146 -0.658536 -0.374709 -22.295591 7.125000 0.000000 0.000000 
4.893140 17.387473 1.155589 -94.529308 87.199346 -86.436351 -19.389337 -23.321755 -10.298268 -0.357632 10.807486 28.791482 -0.434730 9.054208 -16.790621 2.044900 -8.958900 -25.666800 32.212720 25.215594 3.038514 2.610449 -6.640502 19.116743 3.148904 -32.773430 -34.223394 -0.396300 -4.042100 11.195000 1.189876 1.406722 -3.828910 -0.554621 0.249332 -1.236857 5.972722 -1.152218 16.286145 0.575400 0.450600 14.466500 -65.367452 24.476778 43.942092 40.306139 -46.279108 -19.849416 0.452976 -1.329811 -33.088121 -7.125000 0.000000 0.000000 46.514423 -20.706688 52.019247 -36.732661 46.562967 -17.246284 -0.491642 -0.186847 -22.168464 7.125000 0.000000 0.000000 
4.916794 17.388363 1.139555 -84.555995 87.113553 -76.407860 -19.471758 -23.464620 -10.231357 -0.386775 10.831996 28.760685 -0.467020 9.352473 -17.030449 1.999500 -8.865100 -25.374100 32.205350 25.392511 3.177560 2.604434 -6.614778 19.126938 3.230885 -32.945211 -34.098664 -0.335500 -3.722200 10.296500 1.177019 1.540847 -3.830882 -0.567866 0.360983 -1.280295 5.936927 -1.191121 16.268507 0.541100 0.430000 14.456800 -67.022186 24.885542 39.238912 35.815620 -43.540414 -16.583984 0.336803 -1.498166 -31.808832 -7.125000 0.000000 0.000000 47.280897 -20.900477 49.331742 -33.174471 44.105072 -14.707852 -0.273130 0.036281 -22.780735 7.125000 0.000000 0.000000 
4.941438 17.387473 1.123423 -75.610630 87.021706 -67.391674 -19.553376 -23.601781 -10.195619 -0.413612 10.864843 28.747474 -0.502476 9.670252 -17.274116 1.971100 -8.805600 -25.189100 32.185845 25.558547 3.321998 2.601380 -6.577905 19.112861 3.305963 -33.101302 -33.989900 -0.273400 -3.363200 9.291700 1.142526 1.699912 -3.846195 -0.664794 0.482300 -1.364491 5.911523 -1.255806 16.190258 0.505700 0.399100 14.352200 -68.482728 25.038218 34.109853 32.173854 -40.949903 -14.044012 0.247300 -1.623505 -31.596143 -7.125000 0.000000 0.000000 48.142556 -21.091831 46.229602 -30.048682 41.670947 -12.540609 -0.021450 0.246389 -23.690005 7.125000 0.000000 0.000000 
4.966280 17.388363 1.106895 -70.372771 86.925848 -62.057249 -19.571822 -23.553132 -10.259533 -0.423353 10.892431 28.758778 -0.515610 9.781509 -17.359843 1.985600 -8.836100 -25.284000 32.158859 25.683398 3.413664 2.600544 -6.547229 19.085146 3.283989 -33.070323 -34.083887 -0.256400 -3.258100 8.998100 1.095285 1.876902 -3.866229 -0.821635 0.594026 -1.435465 5.952804 -1.407061 16.077391 0.524700 0.326000 14.199800 -69.626476 24.931530 28.821692 29.213957 -38.584344 -12.087340 0.207574 -1.757043 -32.639549 -7.125000 0.000000 0.000000 49.166084 -21.343716 42.232235 -27.340884 39.353556 -10.738675 0.215373 0.399632 -24.380260 7.125000 0.000000 0.000000 
4.989439 17.388660 1.090466 -66.127470 86.848628 -57.752632 -19.603129 -23.363239 -10.342224 -0.423330 10.915540 28.781458 -0.507449 9.728555 -17.355329 2.017200 -8.901900 -25.488900 32.120377 25.774432 3.538815 2.598145 -6.514010 19.057821 3.233384 -32.978498 -34.226665 -0.254600 -3.246700 8.966300 1.047555 2.084201 -3.881522 -0.943012 0.713959 -1.490905 5.982030 -1.629449 16.033379 0.551800 0.216400 14.145400 -70.519780 24.570957 23.238892 26.641585 -36.303464 -10.454642 0.185762 -1.849812 -33.675660 -7.125000 0.000000 0.000000 50.269465 -21.522649 37.398599 -25.016386 37.197359 -9.265901 0.398999 0.484863 -24.586038 7.125000 0.000000 0.000000 
5.011510 17.387572 1.072453 -61.185258 86.770841 -52.827041 -19.692399 -23.166037 -10.352672 -0.422642 10.938032 28.810167 -0.489756 9.650199 -17.410237 1.997900 -8.861700 -25.363700 32.110085 25.840237 3.749532 2.597258 -6.470411 19.028430 3.308087 -33.122211 -34.091976 -0.207300 -2.931700 8.088800 1.007469 2.250411 -3.891982 -1.026381 0.815415 -1.557100 5.962016 -1.786814 16.048578 0.540900 0.142400 14.149300 -71.234814 24.208589 17.967533 25.015737 -34.747238 -9.466465 0.225090 -1.953055 -36.515344 -7.125000 0.000000 0.000000 51.356263 -21.468724 32.117967 -23.057666 35.243539 -8.083143 0.533437 0.521671 -24.294323 7.125000 0.000000 0.000000 
5.032393 17.388858 1.053549 -57.257365 86.685707 -48.924779 -19.773656 -22.994686 -10.346819 -0.419491 10.957248 28.842860 -0.467356 9.553002 -17.481839 1.922600 -8.702900 -24.870300 32.111622 25.893315 3.966315 2.597158 -6.426232 18.992049 3.354563 -33.207278 -34.005448 -0.177000 -2.709600 7.471400 0.973514 2.368045 -3.902364 -1.101446 0.887569 -1.613171 5.989468 -1.860191 16.064372 0.569300 0.108600 14.139500 -71.730621 23.799107 12.632507 23.438690 -33.149646 -8.536675 0.266808 -2.017165 -38.870960 -7.125000 0.000000 0.000000 52.312927 -21.255960 26.849370 -21.493342 33.578143 -7.174946 0.645396 0.539999 -24.176554 7.125000 0.000000 0.000000 
